<svg xmlns="http://www.w3.org/2000/svg" viewBox="0 0 32 32"><path fill="#30acc2" d="M7,1V31H6a3,3,0,0,1-3-3V4A3,3,0,0,1,6,1Z"/><path fill="#d1e6e9" d="M27,25v6H6a3,3,0,0,1,0-6Z"/><rect width="20" height="24" x="7" y="1" fill="#a1d8df"/><rect width="14" height="10" x="10" y="5" fill="#30acc2"/><rect width="2" height="6" x="16" y="7" fill="#d1e6e9"/><rect width="2" height="6" x="16" y="7" fill="#d1e6e9" transform="rotate(90 17 10)"/><rect width="10" height="2" x="12" y="20" fill="#68c7d3"/><path fill="#30acc2" d="M27,3l1.45.72a1,1,0,0,1,.55.9V8.38a1,1,0,0,1-.55.9L27,10Z"/><path fill="#68c7d3" d="M27,10l1.45.72a1,1,0,0,1,.55.9v3.76a1,1,0,0,1-.55.9L27,17Z"/><path fill="#d1e6e9" d="M27,17l1.45.72a1,1,0,0,1,.55.9v3.76a1,1,0,0,1-.55.9L27,24Z"/></svg>