<svg xmlns="http://www.w3.org/2000/svg" viewBox="0 0 48 48"><path fill="#e2534f" d="M45 4.5H3c-1.7 0-3 1.3-3 3v7.8h48V7.5c0-1.6-1.3-3-3-3z"/><path fill="#e2e3e5" d="M48 15.3H0V45c0 1.7 1.3 3 3 3h42c1.7 0 3-1.3 3-3V15.3z"/><path fill="#b8b8b8" d="M38.3 19.3h5.8v6h-5.8zM26.8 19.3h5.8v6h-5.8zM15.4 19.3h5.8v6h-5.8zM4 28.6h5.8v6H4zM38.3 28.6h5.8v6h-5.8zM26.8 28.6h5.8v6h-5.8zM15.4 28.6h5.8v6h-5.8zM4 38h5.8v6H4zM26.8 38h5.8v6h-5.8zM15.4 38h5.8v6h-5.8z"/><path fill="#525b7a" d="M38.3 0C37 0 36 1 36 2.2v4.6C36 8 37 9 38.2 9c1.2 0 2.2-1 2.2-2.2V2.2C40.5 1 39.5 0 38.3 0zM24 0c-1.2 0-2.2 1-2.2 2.2v4.6C21.8 8 22.8 9 24 9s2.2-1 2.2-2.2V2.2C26.2 1 25.2 0 24 0zM9.7 0C8.5 0 7.5 1 7.5 2.2v4.6C7.5 8 8.5 9 9.7 9s2.2-1 2.2-2.2V2.2C12 1 11 0 9.7 0z"/></svg>