<svg xmlns="http://www.w3.org/2000/svg" viewBox="0 0 32 32"><rect width="28" height="22" x="2" y="9" fill="#d1e6e9"/><path fill="#30acc2" d="M13,27a4,4,0,0,0,2.8-1.16L19.5,22.1l2.34-2.34a4,4,0,1,0-5.6-5.6L13.9,16.5l-3.74,3.74A4,4,0,0,0,13,27Z"/><path fill="#68c7d3" d="M13,27a4,4,0,0,0,2.8-1.16l3-3-5.6-5.6-3,3A4,4,0,0,0,13,27Z"/><rect width="30" height="6" x="1" y="3" fill="#68c7d3"/><rect width="2" height="5" x="6" y="1" fill="#a1d8df" rx="1"/><rect width="2" height="5" x="12" y="1" fill="#a1d8df" rx="1"/><rect width="2" height="5" x="18" y="1" fill="#a1d8df" rx="1"/><rect width="2" height="5" x="24" y="1" fill="#a1d8df" rx="1"/><polygon fill="#68c7d3" points="24 31 24 25 30 25 24 31"/><polygon fill="#a1d8df" points="30 25 30 31 24 31 30 25"/></svg>