<svg xmlns="http://www.w3.org/2000/svg" viewBox="0 0 32 32"><polygon fill="#30acc2" points="13 20 19 20 21 30 11 30 13 20"/><path fill="#68c7d3" d="M11,29H21a2,2,0,0,1,2,2v0a0,0,0,0,1,0,0H9a0,0,0,0,1,0,0v0A2,2,0,0,1,11,29Z"/><path fill="#d1e6e9" d="M3,1H29a2,2,0,0,1,2,2V20a0,0,0,0,1,0,0H1a0,0,0,0,1,0,0V3A2,2,0,0,1,3,1Z"/><path fill="#68c7d3" d="M1,20H31a0,0,0,0,1,0,0v3a2,2,0,0,1-2,2H3a2,2,0,0,1-2-2V20A0,0,0,0,1,1,20Z"/><path fill="#30acc2" d="M13.25,8.72a2.83,2.83,0,0,1-.83,2L9.75,13.39,8.08,15.06a2.83,2.83,0,1,1-4-4L5.75,9.39,8.42,6.72a2.83,2.83,0,0,1,4.83,2Z"/><path fill="#68c7d3" d="M13.25,8.72a2.83,2.83,0,0,1-.83,2l-2.17,2.17-4-4L8.42,6.72a2.83,2.83,0,0,1,4.83,2Z"/><rect width="11" height="2" x="17" y="6" fill="#a1d8df"/><rect width="11" height="2" x="17" y="10" fill="#a1d8df"/><rect width="8" height="2" x="17" y="14" fill="#a1d8df"/></svg>